<svg width="16" height="16" viewBox="0 0 16 16" fill="none" xmlns="http://www.w3.org/2000/svg">
<rect x="9" y="15" width="1" height="2" transform="rotate(90 9 15)" fill="black"/>
<rect x="11" y="14" width="1" height="6" transform="rotate(90 11 14)" fill="black"/>
<rect x="13" y="13" width="1" height="3" transform="rotate(90 13 13)" fill="black"/>
<rect x="14" y="12" width="1" height="2" transform="rotate(90 14 12)" fill="black"/>
<rect x="2" y="12" width="1" height="8" transform="rotate(-180 2 12)" fill="black"/>
<rect x="15" y="12" width="1" height="8" transform="rotate(-180 15 12)" fill="black"/>
<rect x="6" y="13" width="1" height="3" transform="rotate(90 6 13)" fill="black"/>
<rect x="4" y="12" width="1" height="2" transform="rotate(90 4 12)" fill="black"/>
<rect x="7" y="9" width="7" height="2" transform="rotate(-90 7 9)" fill="black"/>
<rect x="7" y="1" width="1" height="2" transform="rotate(-90 7 1)" fill="black"/>
<rect x="5" y="10" width="1" height="6" transform="rotate(-90 5 10)" fill="black"/>
<rect x="5" y="2" width="1" height="6" transform="rotate(-90 5 2)" fill="black"/>
<rect x="3" y="11" width="1" height="3" transform="rotate(-90 3 11)" fill="black"/>
<rect x="3" y="3" width="1" height="3" transform="rotate(-90 3 3)" fill="black"/>
<rect x="2" y="12" width="1" height="2" transform="rotate(-90 2 12)" fill="black"/>
<rect x="2" y="4" width="1" height="2" transform="rotate(-90 2 4)" fill="black"/>
<rect x="10" y="11" width="1" height="3" transform="rotate(-90 10 11)" fill="black"/>
<rect x="10" y="3" width="1" height="3" transform="rotate(-90 10 3)" fill="black"/>
<rect x="12" y="12" width="1" height="2" transform="rotate(-90 12 12)" fill="black"/>
<rect x="12" y="4" width="1" height="2" transform="rotate(-90 12 4)" fill="black"/>
</svg>
