<svg width="9" height="11" viewBox="0 0 9 11" fill="none" xmlns="http://www.w3.org/2000/svg">
<path d="M4.99301 0.49332V0.986641L4.4958 0.990839L3.9965 0.997137V1.99427V2.99141L4.4958 2.99771L4.99301 3.00191V3.49523V3.98855H4.48951H3.98601V3.49523V3.00191H2.48601H0.986014V3.49523V3.98855H0.493007H0V6.49714V9.00573H0.493007H0.986014V9.49905V9.99237H1.48951H1.99301V10.4962V11H2.98951H3.98601L3.99021 10.5004L3.9965 10.0029L4.4958 9.99656L4.99301 9.99237V10.4962V11H5.98951H6.98601L6.99021 10.5004L6.9965 10.0029L7.4958 9.99656L7.99301 9.99237V9.49905V9.00573H8.4965H9V7.99809V6.99046H7.99301H6.98601V5.99332V4.99618H7.99301H9V4.49237V3.98855H8.4965H7.99301V3.49523V3.00191H6.49301H4.99301V2.49809V1.99427H5.4965H6V1.49046V0.986641H6.49301H6.98601V0.49332V-3.40864e-07H5.98951H4.99301V0.49332Z" fill="white"/>
</svg>
