<svg width="16" height="16" viewBox="0 0 16 16" fill="none" xmlns="http://www.w3.org/2000/svg">
<rect x="10" y="5" width="3" height="1" transform="rotate(90 10 5)" fill="white"/>
<rect x="9" y="7" width="3" height="1" transform="rotate(90 9 7)" fill="white"/>
<rect x="15" y="13" width="3" height="1" transform="rotate(90 15 13)" fill="white"/>
<rect x="2" y="13" width="3" height="1" transform="rotate(90 2 13)" fill="white"/>
<rect x="14" y="16" width="12" height="0.999999" transform="rotate(-180 14 16)" fill="white"/>
<rect x="14" y="13" width="12" height="0.999999" transform="rotate(-180 14 13)" fill="white"/>
<rect x="8" y="9" width="3" height="1" transform="rotate(90 8 9)" fill="white"/>
<rect x="11" y="4" width="1" height="1" transform="rotate(90 11 4)" fill="white"/>
<rect x="12" y="4" width="1" height="1" transform="rotate(90 12 4)" fill="white"/>
<rect x="10" y="3" width="1" height="1" transform="rotate(90 10 3)" fill="white"/>
<rect x="10" y="2" width="1" height="1" transform="rotate(90 10 2)" fill="white"/>
<rect x="11" y="1" width="1" height="1" transform="rotate(90 11 1)" fill="white"/>
<rect x="12" y="1" width="1" height="1" transform="rotate(90 12 1)" fill="white"/>
<rect x="13" y="2" width="1" height="1" transform="rotate(90 13 2)" fill="white"/>
<rect x="13" y="3" width="1" height="1" transform="rotate(90 13 3)" fill="white"/>
<rect x="7" y="11" width="1" height="1" transform="rotate(90 7 11)" fill="white"/>
<rect x="9" y="11" width="1" height="1" transform="rotate(90 9 11)" fill="white"/>
<rect x="10" y="12" width="1" height="1" transform="rotate(90 10 12)" fill="white"/>
</svg>
