<svg width="17" height="16" viewBox="0 0 17 16" fill="none" xmlns="http://www.w3.org/2000/svg">
<g clip-path="url(#clip0_10_628)">
<path d="M2.01718 0.492881V0.985718H8.01145H14.0057V0.492881V4.4445e-05H8.01145H2.01718V0.492881Z" fill="white"/>
<path d="M1.0086 1.50142V1.99426H0.504298H0V6.49856V11.0029H0.504298H1.0086V11.4957V11.9885H1.51289H2.01719V11.4957V11.0029H1.51289H1.0086V6.49856V1.99426H1.51289H2.01719V1.50142V1.00859H1.51289H1.0086V1.50142Z" fill="white"/>
<path d="M14.0057 1.50142V1.99426H14.51H15.0143V6.49856V11.0029H14.51H14.0057V11.4957V11.9885H14.51H15.0143V11.4957V11.0029H15.5186H16.0229V6.49856V1.99426H15.5186H15.0143V1.50142V1.00859H14.51H14.0057V1.50142Z" fill="white"/>
<path d="M6.00572 2.49857V3.00287H5.51289H5.02005V4V4.99713H6.01718H7.01432V4V3.00287H8.01145H9.00859V4V4.99713H8.51575H8.02292L8.01833 5.49456L8.01145 5.99427L7.51403 6.00115L7.01432 6.00573V7.00287V8H8.01145H9.00859V7.00287V6.00573H9.51289H10.0172V5.50143V4.99713H10.51H11.0029V4V3.00287H10.51H10.0172V2.49857V1.99427H8.01145H6.00572V2.49857Z" fill="white"/>
<path d="M7.01431 10.0057V11.0028H8.01145H9.00858V10.0057V9.00854H8.01145H7.01431V10.0057Z" fill="white"/>
<path d="M2.01718 14.0057V16H2.51002H3.00286L3.00744 15.5003L3.01432 15.0029L3.51404 14.996L4.01146 14.9914V14.4986V14.0057H4.5043H4.99714V13.5014V12.9971H4.5043H4.01146V13.5014V14.0057H3.50716H3.00286V13.0086V12.0115H2.51002H2.01718V14.0057Z" fill="white"/>
<path d="M5.02005 12.5044V12.9972H9.51289H14.0057V12.5044V12.0115H9.51289H5.02005V12.5044Z" fill="white"/>
</g>
<defs>
<clipPath id="clip0_10_628">
<rect width="16.0229" height="16" fill="white"/>
</clipPath>
</defs>
</svg>
