<svg width="16" height="16" viewBox="0 0 16 16" fill="none" xmlns="http://www.w3.org/2000/svg">
<path d="M3.03448 0.483902V0.967773H8H12.9655V0.483902V3.15029e-05H8H3.03448V0.483902Z" fill="black"/>
<path d="M2 7.01613V12.9954H2.51724H3.03448V13.9977V15H8H12.9655V13.9977V12.9954H8H3.03448V7.01613V1.03687H2.51724H2V7.01613Z" fill="black"/>
<path d="M13.0345 7.0161V12.9954H13.5172H14V7.0161V1.03684H13.5172H13.0345V7.0161Z" fill="black"/>
<path d="M4 5.49542V8.98621H8H12V5.49542V2.00464H8H4V5.49542ZM11 5.49542V7.9839H8H5L4.97931 5.56455C4.97241 4.23736 4.97931 3.10372 5 3.05533C5.02069 2.9862 5.65517 2.97238 8.01379 2.9862L11 3.00694V5.49542Z" fill="black"/>
<path d="M6 4.49306V4.97693H6.48276H6.96552V4.49306V4.00918H6.48276H6V4.49306Z" fill="black"/>
<path d="M8 4.49306V4.97693H8.48276H8.96552V4.49306V4.00918H8.48276H8V4.49306Z" fill="black"/>
<path d="M6 6.4977V6.98157H6.48276H6.96552V6.4977V6.01382H6.48276H6V6.4977Z" fill="black"/>
<path d="M8 11.5092V12.0276H10H12V11.5092V10.9907H10H8V11.5092Z" fill="black"/>
</svg>
